<svg width="534" height="402" viewBox="0 0 534 402" fill="none" xmlns="http://www.w3.org/2000/svg">
<path fill-rule="evenodd" clip-rule="evenodd" d="M374.891 11.8788C362.226 26.6921 356.727 38.4796 359.484 44.9055C362.018 50.8126 365.709 50.6206 369.56 44.3791C371.269 41.6099 379.08 32.2494 386.919 23.5789C398.216 11.0805 400.929 7.00182 400.002 3.90574C399.091 0.855272 397.325 0 391.94 0C385.759 0 383.994 1.22969 374.891 11.8788ZM403.551 39.9126C401.77 42.0033 399.43 43.712 398.352 43.7082C397.275 43.7044 385.605 46.8118 372.419 50.6111C348.546 57.4913 348.434 57.5046 345.576 53.6901C341.835 48.701 336.014 45.6145 330.341 45.6145C326.27 45.6145 325.903 46.196 326.839 51.1661C328.417 59.544 316.805 94.268 301.869 125.837L289.018 152.998L288.42 142.545C287.727 130.45 290.8 102.904 294.653 86.6504C298.615 69.9422 296.14 64.7478 284.166 64.6471C274.449 64.5635 250.624 107.584 236.388 150.919C228.152 175.982 225.604 192.691 228.988 199.406C230.899 203.199 240.543 209.066 244.869 209.066C245.749 209.066 246.988 204.395 247.619 198.685C249.028 185.955 256.295 161.669 262.144 150.148L266.487 141.595L266.567 160.314C266.625 173.489 267.507 180.956 269.549 185.527C272.784 192.767 284.918 201.502 289.839 200.133C292.688 199.343 298.141 190.239 311.81 163.452C320.158 147.091 331.184 119.438 338.552 96.3776C342.628 83.6151 346.134 72.928 346.34 72.6277C346.547 72.3255 348.89 73.1314 351.544 74.4162C355.35 76.2579 359.055 76.2655 369.037 74.4466C376.002 73.1789 381.919 72.373 382.187 72.6562C382.454 72.9413 379.472 78.7325 375.56 85.5271C355.633 120.135 333.378 174.911 335.534 184.035C336.882 189.73 349.787 204.026 352.662 203.007C353.761 202.618 356.891 195.055 359.617 186.202C368.141 158.522 387.32 116.113 409.43 76.0621C415.772 64.5768 416.765 63.6455 424.206 62.2314C428.594 61.399 441.243 60.5247 452.314 60.2928C471.489 59.8899 472.445 59.6789 472.446 55.8492C472.448 53.6388 470.827 49.638 468.842 46.9582C463.119 39.2322 455.055 37.4381 432.936 38.9719C419.051 39.9355 413.394 39.7188 413.394 38.2192C413.394 34.743 407.023 35.8378 403.551 39.9126ZM86.7948 39.3064C59.4339 45.8235 46.429 51.4816 25.6412 65.9148C6.18838 79.4205 0 88.3457 0 102.895C0 108.899 0.676469 114.257 1.50505 114.8C2.33362 115.344 4.7245 113.325 6.81831 110.317C13.1516 101.218 31.9602 87.0514 51.7136 76.4992C61.9858 71.0122 70.7727 66.9259 71.2379 67.4201C71.7014 67.9142 67.6373 76.2522 62.2059 85.9509C41.4915 122.927 27.9676 155.296 20.5283 185.704C14.1574 211.744 14.4724 215.435 23.9231 225.472C32.5471 234.629 39.3708 236.477 39.3708 229.654C39.3708 227.386 40.2799 219.991 41.3895 213.219L43.4099 200.905L45.7507 208.139C52.0268 227.529 65.0424 227.377 92.4678 207.59C116.022 190.596 148.061 146.517 159.244 115.718C167.068 94.171 167.169 82.3151 159.661 66.1182C152.276 50.1892 146.399 44.5596 133.396 40.9618C123.476 38.2192 95.5297 37.2252 86.7948 39.3064ZM144.727 62.5716C148.476 64.7193 148.85 65.949 147.927 73.0991C145.531 91.666 132.612 117.877 109.743 150.564C96.9346 168.874 74.1102 192.721 63.7557 198.613L57.077 202.414L53.7609 197.756C50.9315 193.78 50.0278 193.466 47.5922 195.614C43.5245 199.198 43.92 196.788 51.2018 173.588C59.0366 148.623 73.5322 114.03 86.904 88.3856C95.1182 72.6315 96.5051 68.6745 95.0233 65.2192C93.4538 61.5624 93.8261 60.9447 98.0692 60.1579C107.459 58.4188 140.454 60.1255 144.727 62.5716ZM210.652 65.1184C198.545 72.3084 181.389 89.8301 172.416 104.168C145.915 146.514 139.462 199.136 159.425 210.1C171.852 216.925 188.227 210.98 204.012 193.911C215.888 181.07 232.601 146.896 238.131 124.142C243.827 100.707 241.125 88.9596 228.066 80.3993C225.189 78.512 225.026 77.8088 227.114 76.2978C228.501 75.2962 230.797 74.9484 232.216 75.5261C235.973 77.058 237.972 72.3483 235.955 66.7187C232.442 56.9021 225.249 56.4479 210.652 65.1184ZM220.172 115.22C209.272 157.415 176.521 207.238 170.549 190.71C167.183 181.393 182.378 137.163 197.441 112.438C204.476 100.892 206.384 98.8788 208.519 100.76C210.591 102.587 212.252 102.002 216.951 97.7898C222.658 92.6734 222.817 92.6449 223.37 96.5962C223.682 98.8256 222.243 107.205 220.172 115.22ZM506.27 200.076C487.747 213.215 436.719 303.902 436.674 323.76C436.658 331.305 442.26 342.12 446.175 342.095C447.339 342.089 451.444 335.888 455.297 328.316C465.728 307.818 479.49 286.25 507.112 247.103C520.762 227.757 532.584 210.106 533.382 207.876C534.339 205.199 533.931 202.458 532.172 199.793C528.376 194.036 514.57 194.188 506.27 200.076ZM112.74 217.914C109.635 220.688 102.432 230.323 96.7341 239.324C68.0883 284.568 51.9391 329.372 51.9105 363.678C51.8943 381.85 54.8758 389.397 64.2854 395.014C75.8032 401.888 77.2653 401.048 87.7236 381.546C99.1733 360.195 122.06 322.861 123.054 323.916C123.449 324.336 122.819 331.362 121.652 339.531C120.46 347.884 120.061 359.393 120.74 365.826C123.324 390.321 132.454 401.027 150.756 401.027C160.059 401.027 160.994 400.577 167.58 392.95C171.415 388.506 179.218 376.547 184.918 366.373C195.206 348.014 195.315 347.898 199.512 350.817L203.74 353.759L200.297 364.387C195.437 379.389 195.831 385.028 202.21 391.803C210.478 400.584 214.655 398.773 218.231 384.857C219.845 378.577 223.639 367.825 226.661 360.964L232.157 348.491L249.999 343.399C259.812 340.599 268.692 338.307 269.733 338.307C270.886 338.307 269.894 345.415 267.192 356.507C262.884 374.194 262.852 374.816 266.041 378.558C267.847 380.677 271.684 383.707 274.567 385.29C279.316 387.898 280.014 387.875 281.967 385.035C283.153 383.313 287.148 370.891 290.843 357.431C297.327 333.816 297.744 332.932 302.817 332.142C307.456 331.418 307.941 331.788 306.946 335.289C306.325 337.473 304.059 348.033 301.912 358.758C298.989 373.349 298.495 379.09 299.947 381.565C302.422 385.78 315.459 393.696 316.998 391.919C317.639 391.178 319.428 384.587 320.974 377.27C327.1 348.291 337.959 315.186 350.59 286.991C353.634 280.196 356.125 273.634 356.125 272.408C356.129 268.521 347 258.482 343.464 258.482C341.424 258.482 338.188 261.641 335.372 266.379C331.275 273.271 315.996 307.896 312.501 318.205C311.309 321.721 311.16 321.704 308.538 317.729C307.041 315.458 304.793 313.599 303.542 313.599C301.776 313.599 301.448 307.943 302.076 288.302C302.994 259.548 301.541 254.124 291.086 247.263C280.628 240.396 275.497 241.779 264.461 254.441C250.178 270.823 233.782 294.559 222.232 315.572C213.608 331.262 211.13 334.381 205.893 336.125C202.499 337.258 199.419 337.862 199.05 337.471C198.681 337.079 199.71 334.029 201.335 330.691C212.694 307.362 225.487 260.073 225.487 241.413C225.487 223.826 218.496 212.867 207.278 212.867C202.47 212.867 202.409 213.019 203.445 222.315C205.287 238.832 196.582 273.206 179.982 314.975C171.795 335.576 156.22 366.419 150.593 373.174C147.775 376.557 147.63 376.525 146.492 372.223C142.347 356.553 146.452 329.167 158.681 290.927C166.521 266.411 166.712 265.301 163.505 262.81C156.92 257.693 152.621 257.927 144.623 263.838C130.704 274.126 117.611 290.602 96.0308 324.99C88.4895 337.005 82.3208 345.541 82.3208 343.958C82.3208 342.376 83.9869 334.685 86.0253 326.866C93.5004 298.178 123.084 243.224 135.629 234.724C142.66 229.96 142.893 224.625 136.357 217.974C129.578 211.077 120.417 211.052 112.74 217.914ZM400.802 219.995C400.766 220.778 398.905 223.8 396.663 226.706C392.942 231.535 390.281 232.408 365.902 236.796C351.224 239.438 338.884 241.95 338.48 242.378C338.077 242.808 339.003 245.195 340.54 247.685C344.763 254.531 354.332 258.482 366.687 258.482C372.691 258.482 377.602 258.934 377.602 259.487C377.602 260.039 375.283 265.385 372.448 271.366C357.487 302.928 343.978 346.24 342.354 367.852C341.438 380.054 341.726 381.696 345.606 386.385C347.949 389.213 352.337 392.032 355.359 392.645C360.803 393.753 360.877 393.658 363.16 382.665C368.046 359.134 385.866 308.069 403.245 267.799L409.476 253.36L420.645 252.119C426.789 251.438 439.346 250.88 448.554 250.88C457.759 250.88 465.292 250.469 465.292 249.967C465.292 245.334 458.846 233.863 455.268 232.132C452.815 230.944 442.541 229.973 432.437 229.973C414.101 229.973 414.059 229.961 410.097 224.271C406.475 219.067 400.958 216.53 400.802 219.995ZM279.22 292.299C278.028 302.639 276.514 312.022 275.857 313.151C274.816 314.939 253.532 321.202 248.494 321.202C247.492 321.202 248.502 317.995 250.74 314.075C256.728 303.585 279.723 271.733 280.617 272.685C281.042 273.136 280.413 281.962 279.22 292.299ZM417.043 353.037C409.509 362.694 402.656 378.505 402.656 386.233C402.656 396.631 406.819 401.031 416.628 401.004L425.026 400.98L433.748 383.063C443.341 363.357 443.622 358.834 435.772 350.498C429.461 343.794 423.636 344.585 417.043 353.037Z" fill="red"/>
</svg>
