<svg width="160" height="78" viewBox="0 0 160 78" fill="none" xmlns="http://www.w3.org/2000/svg">
<path d="M102.068 2.64783L101.938 3.13055C96.8531 1.75767 89.5943 0.880701 82.4346 0.59882C75.2717 0.316811 68.2631 0.632669 63.6737 1.62062C48.6908 4.84753 34.0454 11.3558 20.3539 20.8793C15.7703 24.0677 10.9898 27.7851 7.25446 30.9721C5.38638 32.5659 3.78523 34.0224 2.60282 35.2104C2.01125 35.8048 1.52989 36.3266 1.1739 36.7611C0.808187 37.2074 0.606889 37.5237 0.534257 37.7129L102.068 2.64783ZM102.068 2.64783L101.938 3.13055C111.455 5.69969 125.425 12.1455 135.462 18.6062C140.027 21.5455 145.149 25.312 149.392 28.7467C151.513 30.4639 153.411 32.0947 154.908 33.4946C156.415 34.9048 157.484 36.0512 157.977 36.8048L158.395 36.5308M102.068 2.64783L158.395 36.5308M158.395 36.5308L157.977 36.8049C158.387 37.4298 158.623 37.8148 158.708 38.1643C158.78 38.4573 158.752 38.7617 158.468 39.2378C158.169 39.7395 157.613 40.3829 156.679 41.3167C155.751 42.244 154.482 43.4261 152.784 45.0035C135.226 61.3144 110.634 73.3542 89.0485 76.2262C73.252 78.3292 54.2263 74.5045 36.6623 65.6593C28.2398 61.4181 18.8237 55.2104 11.6913 49.6072M158.395 36.5308L11.6913 49.6072M11.6913 49.6072C8.1241 46.8047 5.1425 44.1647 3.1455 42.007M11.6913 49.6072L3.1455 42.007M3.1455 42.007C2.14507 40.9262 1.40809 39.9837 0.966247 39.2152M3.1455 42.007L0.966247 39.2152M0.966247 39.2152C0.745368 38.8311 0.60847 38.5078 0.543839 38.2455M0.966247 39.2152L0.543839 38.2455M0.543839 38.2455C0.478903 37.9819 0.495166 37.8149 0.534236 37.713L0.543839 38.2455ZM93.7949 9.16606L93.7948 9.16602C90.9183 7.70533 86.202 6.77424 81.5429 6.46146C76.8871 6.14889 72.1639 6.44536 69.2755 7.52445L69.2754 7.52448C60.3868 10.8469 54.2881 16.4037 50.0308 25.052L50.4794 25.2728C48.4864 29.3218 48.0764 31.6468 48.1164 38.6718L47.6164 38.6746C47.6164 38.6746 47.6164 38.6747 47.6164 38.6747C47.6364 42.2655 47.7496 44.6268 48.1456 46.6274C48.5445 48.6428 49.2259 50.2707 50.3457 52.4042C59.1243 69.13 77.5308 75.4452 94.0043 67.3354C108.76 60.0711 115.825 42.5081 110.086 27.3072C108.782 23.8523 106.349 20.1545 103.436 16.911C100.523 13.6674 97.1013 10.8458 93.7949 9.16606ZM49.4145 15.9146L49.4145 15.9145C50.3986 14.5446 51.2143 13.2937 51.7349 12.3795C51.9924 11.9273 52.1901 11.5363 52.2961 11.2466C52.3446 11.1141 52.3969 10.9439 52.3942 10.7808C52.3929 10.6993 52.3774 10.5457 52.2665 10.4054C52.1349 10.239 51.9492 10.1881 51.8031 10.192L51.8018 10.192C51.7085 10.1948 51.6138 10.2198 51.5561 10.236C51.4843 10.2562 51.4005 10.2837 51.3084 10.3162C51.1233 10.3815 50.8829 10.4747 50.5969 10.5911C50.0235 10.8244 49.2478 11.1585 48.327 11.568C46.4844 12.3872 44.0485 13.5132 41.4629 14.7487C31.4092 19.5526 23.611 24.5444 13.4969 32.6425L13.4969 32.6426L7.23887 37.6546L6.81232 37.9962L7.19042 38.3908L9.80537 41.1197C12.2492 43.6708 16.9632 47.2818 22.3633 50.9061C27.7725 54.5366 33.9074 58.2053 39.2162 60.8687C42.2067 62.3691 44.637 63.5391 46.538 64.3844C48.4288 65.2253 49.8268 65.7592 50.7396 65.9691C51.1731 66.0688 51.5983 66.1217 51.9248 66.0184C52.1109 65.9595 52.3041 65.8367 52.4126 65.6133C52.5148 65.403 52.5012 65.1856 52.4613 65.0164C52.385 64.6925 52.161 64.3291 51.8779 63.9545C51.5829 63.564 51.1779 63.1033 50.6738 62.5762L50.3124 62.9218L50.6737 62.5762C46.8972 58.6282 44.1914 52.4532 42.9372 45.8164C41.6837 39.183 41.8938 32.1587 43.8769 26.5392L43.877 26.5391C44.9863 23.3935 47.4864 18.5978 49.4145 15.9146ZM117.253 14.579L117.039 15.0308L117.253 14.579C114.72 13.3789 112.334 12.2872 110.53 11.4947C109.629 11.0987 108.87 10.776 108.309 10.5516C108.03 10.4397 107.794 10.3502 107.613 10.2879C107.523 10.257 107.44 10.2307 107.369 10.2116C107.313 10.1966 107.216 10.1718 107.118 10.1718C106.999 10.1718 106.838 10.2079 106.707 10.339C106.584 10.4626 106.549 10.6092 106.54 10.7035C106.523 10.8739 106.575 11.041 106.614 11.1508C106.704 11.3992 106.876 11.7223 107.096 12.0834C107.543 12.8175 108.252 13.815 109.114 14.9023C112.117 18.6945 113.968 21.7557 115.077 25.2884C116.189 28.8289 116.568 32.8796 116.568 38.6718C116.568 43.4607 116.503 46.166 116.125 48.3098C115.75 50.4299 115.067 52.0153 113.777 54.5587C112.22 57.6302 109.864 61.2941 108.566 62.6948C108.098 63.1992 107.722 63.6413 107.449 64.0165C107.189 64.3747 106.979 64.7298 106.917 65.0498C106.884 65.2197 106.881 65.4352 106.994 65.6389C107.112 65.8505 107.305 65.9617 107.485 66.014C107.807 66.1072 108.222 66.0539 108.649 65.9541C109.545 65.7448 110.911 65.2216 112.763 64.399C114.625 63.5719 117.008 62.4282 119.951 60.9603C124.823 58.5297 131.384 54.5001 137.213 50.5257C143.026 46.5626 148.179 42.6095 150.191 40.3297L149.816 39.9988L150.191 40.3297C150.6 39.8669 150.983 39.4207 151.153 38.9471C151.349 38.4016 151.251 37.8805 150.899 37.3299C150.568 36.8121 149.988 36.2255 149.148 35.4845C148.3 34.7359 147.145 33.7947 145.631 32.5683C136.267 24.9827 127.55 19.457 117.253 14.579ZM94.0655 33.6919L94.5474 33.5588L94.0655 33.6919C94.3252 34.6322 94.5055 35.3772 94.6125 35.9338C94.5893 35.8966 94.5656 35.8582 94.5414 35.8185C94.1185 35.1266 93.5677 34.1026 92.8924 32.7407L92.4444 32.9628L92.8924 32.7407C91.9691 30.879 91.0539 29.4719 89.8663 28.2615C88.6802 27.0526 87.244 26.062 85.3079 25.0059L85.3078 25.0058C84.0833 24.3382 83.1756 23.7874 82.5753 23.3664C83.1821 23.5276 84.0143 23.8021 85.0767 24.2036L85.2534 23.7358L85.0767 24.2036C87.0676 24.9558 89.0552 26.3678 90.6814 28.0865C92.3089 29.8066 93.5433 31.8009 94.0655 33.6919ZM95.2342 36.7657C95.2345 36.7659 95.2338 36.7655 95.2321 36.7643C95.2333 36.7651 95.2341 36.7656 95.2342 36.7657ZM86.5888 28.814L86.5889 28.8142C87.005 30.1244 86.9106 30.9161 86.5542 31.3789C86.1913 31.8501 85.4131 32.1718 83.9784 32.1718C82.7939 32.1718 81.9669 31.7207 81.5263 31.0703C81.0848 30.4187 80.9668 29.472 81.3972 28.351L81.3973 28.3508C81.7107 27.5333 82.7552 27.0773 83.9985 27.1769C85.2322 27.2757 86.2989 27.9001 86.5888 28.814ZM95.0294 33.4258C94.4526 31.3368 93.115 29.2036 91.4078 27.3992C89.6992 25.5934 87.5892 24.0839 85.4301 23.2681C84.135 22.7787 83.1371 22.4598 82.4483 22.3053C82.1103 22.2295 81.8119 22.1851 81.578 22.1933C81.4651 22.1972 81.3178 22.2145 81.1801 22.283C81.0195 22.363 80.8596 22.5243 80.8328 22.771C80.811 22.9724 80.8912 23.1376 80.9486 23.2327C81.0123 23.3383 81.0975 23.4376 81.1872 23.5286C81.3682 23.712 81.6263 23.9194 81.9471 24.147C82.5928 24.6052 83.5557 25.1896 84.8291 25.8838C86.7188 26.9147 88.0617 27.85 89.1525 28.9619C90.242 30.0723 91.1017 31.3807 91.9965 33.185C92.6766 34.5566 93.2425 35.611 93.6881 36.34C93.9101 36.7033 94.1094 36.9975 94.284 37.2129C94.3711 37.3204 94.46 37.4181 94.5498 37.4973C94.6318 37.5696 94.7523 37.6607 94.9042 37.7038C95.0892 37.7562 95.3215 37.7326 95.5013 37.5576C95.6416 37.4209 95.6879 37.2479 95.7073 37.1429C95.7484 36.9205 95.7309 36.6312 95.6898 36.3197C95.6044 35.6735 95.3825 34.7042 95.0294 33.4258ZM83.9784 33.1718C85.4918 33.1718 86.6876 32.8446 87.3464 31.989C88.0118 31.1251 87.9868 29.9122 87.542 28.5115C87.0758 27.0425 85.5071 26.2945 84.0783 26.1801C82.6592 26.0664 81.0144 26.5563 80.4636 27.9926C79.943 29.3486 80.035 30.652 80.6984 31.6311C81.3625 32.6114 82.535 33.1718 83.9784 33.1718ZM60.5 39.9988C60.5 34.0117 62.297 29.0238 65.716 25.5345C69.1329 22.0473 74.2256 20 80.9304 20C87.6355 20 92.7818 22.0476 96.2512 25.5371C99.7218 29.0278 101.568 34.0155 101.568 39.9988C101.568 45.9822 99.7218 50.9739 96.251 54.4684C92.7815 57.9617 87.6353 60.0128 80.9304 60.0128C74.2259 60.0128 69.1332 57.9619 65.7162 54.471C62.297 50.9778 60.5 45.986 60.5 39.9988Z" fill="#CAFFC6" stroke="#00FF19"/>
</svg>
