<svg width="77" height="60" viewBox="0 0 77 60" fill="none" xmlns="http://www.w3.org/2000/svg">
<path fill-rule="evenodd" clip-rule="evenodd" d="M6.55104 0.546162C5.64449 0.872067 4.38366 1.56896 3.7492 2.09518C2.23995 3.34663 0.683688 6.04468 0.263724 8.13795C0.038021 9.26283 -0.0416755 16.7532 0.0202762 31.0402C0.105576 50.6354 0.156009 52.3876 0.67715 53.783C1.43364 55.809 3.41018 58.0658 5.35932 59.1295L6.95419 60H38.5526H70.1511L71.6127 59.2551C73.4775 58.3051 75.3326 56.3861 76.2675 54.4403L77 52.9151V30.2113C77 7.70029 76.9944 7.49483 76.3347 6.01892C75.3796 3.88218 73.6313 2.02658 71.6021 0.99573L69.8398 0.100458L39.0196 0.0273543C9.80085 -0.0422065 8.11384 -0.015155 6.55104 0.546162ZM68.2676 5.36614C68.1048 5.51686 62.2281 10.7616 55.208 17.0214C48.1878 23.2809 41.5823 29.1769 40.5292 30.1233L38.6143 31.844L23.796 18.6117C15.6461 11.3339 8.97773 5.31462 8.97773 5.23572C8.97773 5.15682 22.3845 5.09209 38.7705 5.09209C55.1778 5.09209 68.4304 5.21511 68.2676 5.36614ZM15.3998 17.6829C24.4787 25.8003 25.4746 26.7857 25.0842 27.2636C23.4884 29.2168 5.97666 50.1407 5.51 50.6518C4.94465 51.2717 4.93064 50.7703 4.93064 29.9607C4.93064 18.2313 5.00941 8.63453 5.1056 8.63453C5.2018 8.63453 9.83416 12.7061 15.3998 17.6829ZM72.4763 29.8892C72.4763 41.1365 72.3736 50.4985 72.2478 50.6937C72.0588 50.9867 65.1433 42.9653 52.8059 28.1428L51.6487 26.7529L61.8094 17.6832C69.0456 11.2241 72.0426 8.73275 72.2232 9.02678C72.3623 9.25382 72.4763 18.6419 72.4763 29.8892ZM33.1784 33.5582C37.1667 37.1329 37.8425 37.6182 38.8309 37.6182C39.1849 37.6182 41.248 36.0305 43.5377 33.9952C45.7798 32.0028 47.7311 30.3294 47.8737 30.2769C48.0166 30.2245 52.7891 35.712 58.4796 42.4713C66.2525 51.7046 68.7197 54.8306 68.3987 55.0409C67.8701 55.3871 9.2794 55.4164 8.75328 55.0705C8.49457 54.9005 11.6775 50.8859 18.7063 42.5161C24.3897 35.7484 29.1307 30.2113 29.2415 30.2113C29.3527 30.2113 31.124 31.7174 33.1784 33.5582Z" fill="white"/>
</svg>
