<svg width="61" height="61" viewBox="0 0 61 61" fill="none" xmlns="http://www.w3.org/2000/svg">
<circle cx="30.5" cy="30.5" r="30.5" fill="white"/>
<path d="M26.5146 22.8694C25.4887 20.1783 22.9638 16.5095 21.8428 15.2C20.7219 13.8904 14.8379 17.4663 14.9285 22.3084C15.0191 27.1504 18.6663 33.9062 21.8428 37.2733C25.0194 40.6403 30.1558 44.6948 36.7925 45.8778C39.3636 46.2943 42.0251 46.2896 43.8936 44.5684C45.762 42.8472 46.4377 40.9987 45.9803 39.6221C45.5229 38.2456 39.9021 35.0663 38.6609 35.0285C37.4197 34.9908 34.1782 39.3445 33.9894 38.9566C28.7421 37.2556 22.1992 28.868 22.4035 27.1718C22.6077 25.4756 24.66 24.4727 26.5146 22.8694Z" fill="#114200"/>
</svg>
