<svg width="344" height="388" viewBox="0 0 344 388" fill="none" xmlns="http://www.w3.org/2000/svg">
<rect x="4.63281" y="5.61103" width="182.439" height="298.932" rx="7" fill="#B7F2FF"/>
<rect x="16.6035" y="5.61103" width="2.31668" height="298.932" fill="#55ADFF"/>
<rect x="32.2402" y="5.61103" width="2.31668" height="298.932" fill="#55ADFF"/>
<rect x="47.877" y="5.61103" width="2.31668" height="298.932" fill="#55ADFF"/>
<rect x="63.5156" y="5.61103" width="2.31667" height="298.932" fill="#55ADFF"/>
<rect x="79.1543" y="5.61103" width="2.31669" height="298.932" fill="#55ADFF"/>
<rect x="94.791" y="5.61103" width="2.31667" height="298.932" fill="#55ADFF"/>
<rect x="110.43" y="5.61103" width="2.31671" height="298.932" fill="#55ADFF"/>
<rect x="126.066" y="5.61103" width="2.31667" height="298.932" fill="#55ADFF"/>
<rect x="141.703" y="5.61103" width="2.31668" height="298.932" fill="#55ADFF"/>
<rect x="157.342" y="5.61103" width="2.31668" height="298.932" fill="#55ADFF"/>
<rect x="172.979" y="5.61103" width="2.31673" height="298.932" fill="#55ADFF"/>
<rect y="64.2366" width="191.705" height="20.5093" fill="#505050"/>
<rect y="216.702" width="191.705" height="20.5093" fill="#505050"/>
<rect width="191.705" height="10.2546" fill="#646464"/>
<rect y="299.319" width="191.705" height="10.2546" fill="#646464"/>
<ellipse cx="218.154" cy="262.364" rx="123.363" ry="123.636" fill="white" stroke="black" stroke-width="4"/>
<rect x="216.031" y="138.728" width="5.21254" height="247.272" fill="black"/>
<rect width="5.2183" height="246.999" transform="matrix(0.706325 0.707887 -0.706325 0.707887 304.025 173.093)" fill="black"/>
<rect x="95.2734" y="264.976" width="5.22409" height="246.727" transform="rotate(-90 95.2734 264.976)" fill="black"/>
<rect width="5.2183" height="247" transform="matrix(0.706325 -0.707887 0.706325 0.707887 129.562 176.787)" fill="black"/>
<ellipse cx="218.153" cy="262.364" rx="111.78" ry="112.027" fill="white"/>
<ellipse cx="218.155" cy="262.364" rx="3.0889" ry="3.09575" fill="black"/>
<path d="M220.983 155.828C219.421 154.266 216.888 154.266 215.326 155.828L189.87 181.284C188.308 182.846 188.308 185.379 189.87 186.941C191.432 188.503 193.965 188.503 195.527 186.941L218.154 164.313L240.782 186.941C242.344 188.503 244.876 188.503 246.439 186.941C248.001 185.379 248.001 182.846 246.439 181.284L220.983 155.828ZM222.154 262.364L222.154 158.657L214.154 158.657L214.154 262.364L222.154 262.364Z" fill="black"/>
<path d="M297.037 280.579C298.867 279.343 299.348 276.857 298.112 275.025L277.96 245.176C276.724 243.344 274.237 242.861 272.407 244.096C270.577 245.332 270.096 247.818 271.332 249.65L289.245 276.183L262.734 294.08C260.904 295.316 260.423 297.802 261.659 299.634C262.896 301.466 265.382 301.949 267.212 300.714L297.037 280.579ZM217.394 266.291L294.038 281.189L295.558 273.335L218.914 258.437L217.394 266.291Z" fill="black"/>
</svg>
