<svg width="71" height="55" viewBox="0 0 71 55" fill="none" xmlns="http://www.w3.org/2000/svg">
<path fill-rule="evenodd" clip-rule="evenodd" d="M45.7834 0.312766C41.4533 1.361 37.8403 4.24185 35.8344 8.24637C34.7961 10.3188 34.6952 10.813 34.6952 13.8183C34.6952 17.6568 35.0862 17.4251 30.0028 16.6018C21.0779 15.1568 13.7164 11.5893 7.04599 5.47713C3.73385 2.4417 3.80503 2.44001 2.81639 5.58503C2.41328 6.86699 2.28774 8.25212 2.39647 10.215C2.60214 13.9208 4.30113 17.3459 7.06852 19.6355C8.9274 21.1732 8.92847 21.1752 7.86294 21.1664C7.27598 21.1617 5.71684 20.8099 4.39771 20.3847L1.99945 19.6118L2.21263 21.1546C2.96877 26.6318 7.50168 31.599 12.858 32.8201C14.6357 33.2253 13.187 33.6796 10.0985 33.6853L7.32033 33.6904L8.25067 35.4266C10.5198 39.6611 14.4114 42.1726 19.988 43.0023L21.3769 43.2087L19.4758 44.4193C14.9161 47.3231 9.79371 48.9054 3.93451 49.2197L0 49.4307L2.68262 50.7418C8.66593 53.6659 14.7172 55 21.9975 55C33.7187 55 42.9698 51.5648 51.0914 44.197C58.4901 37.4848 62.8849 28.5017 63.8971 18.0227L64.3196 13.6506L67.6596 10.4917C69.497 8.75442 71 7.20186 71 7.04153C71 6.8812 69.9137 7.08888 68.5856 7.50324C67.2576 7.91759 65.447 8.36239 64.5617 8.49194L62.9521 8.72702L65.0274 6.95967C66.7772 5.46935 69.1966 2.3064 69.2084 1.49359C69.2102 1.36573 68.1782 1.70398 66.9156 2.24551C65.6526 2.78705 63.6686 3.48012 62.5065 3.78556L60.3936 4.3413L58.4536 2.94636C57.3866 2.17922 55.6286 1.23483 54.5466 0.847874C52.1176 -0.0210846 48.1609 -0.262593 45.7834 0.312766Z" fill="white"/>
</svg>
